# xmcd
#
# Track frame offsets:
#	150
#	133145
#	233727
#
# Disc length: 3485 seconds
#
# Revision: 1
# Processed by: cddbd v1.5.1PL0 Copyright (c) Steve Scherf et al.
# Submitted via: CDex 1.50Beta5
#
DISCID=210d9b03
DTITLE=デジキャラット - CDドラマ デ・ジ・キャラット そにょ6
DYEAR=1900
DGENRE=Anime
TTITLE0=「さらばデ・ジ・キャラット 〜アキハバラ最期の日〜」前編
TTITLE1=「さらばデ・ジ・キャラット 〜アキハバラ最期の日〜」後編
TTITLE2=メッセージ
EXTD=
EXTT0=
EXTT1=
EXTT2=
PLAYORDER=
